HIERARCHY
ROOT root
{
	OFFSET 0.000000 0.000000 0.000000
	CHANNELS 6 Xposition Yposition Zposition Zrotation Yrotation Xrotation
	JOINT lhip
	{
		OFFSET 0.058581 -0.082280 -0.017664
		CHANNELS 3 Zrotation Yrotation Xrotation
		JOINT lknee
		{
			OFFSET 0.043451 -0.386469 0.008037
			CHANNELS 3 Zrotation Yrotation Xrotation
			JOINT lankle
			{
				OFFSET -0.014790 -0.426874 -0.037428
				CHANNELS 3 Zrotation Yrotation Xrotation
				JOINT ltoe
				{
					OFFSET 0.041054 -0.060286 0.122042
					CHANNELS 3 Zrotation Yrotation Xrotation
					End Site
					{
						OFFSET 0.000000 0.000000 0.000000
					}
				}
			}
		}
	}
	JOINT rhip
	{
		OFFSET -0.060310 -0.090513 -0.013543
		CHANNELS 3 Zrotation Yrotation Xrotation
		JOINT rknee
		{
			OFFSET -0.043257 -0.383688 -0.004843
			CHANNELS 3 Zrotation Yrotation Xrotation
			JOINT rankle
			{
				OFFSET 0.019056 -0.420046 -0.034562
				CHANNELS 3 Zrotation Yrotation Xrotation
				JOINT rtoe
				{
					OFFSET -0.034840 -0.062106 0.130323
					CHANNELS 3 Zrotation Yrotation Xrotation
					End Site
					{
						OFFSET 0.000000 0.000000 0.000000
					}
				}
			}
		}
	}
	JOINT lowerback
	{
		OFFSET 0.004439 0.124404 -0.038385
		CHANNELS 3 Zrotation Yrotation Xrotation
		JOINT upperback
		{
			OFFSET 0.004488 0.137956 0.026820
			CHANNELS 3 Zrotation Yrotation Xrotation
			JOINT chest
			{
				OFFSET -0.002265 0.056032 0.002855
				CHANNELS 3 Zrotation Yrotation Xrotation
				JOINT lowerneck
				{
					OFFSET -0.013390 0.211636 -0.033468
					CHANNELS 3 Zrotation Yrotation Xrotation
					JOINT upperneck
					{
						OFFSET 0.010113 0.088937 0.050410
						CHANNELS 3 Zrotation Yrotation Xrotation
						End Site
						{
							OFFSET 0.000000 0.000000 0.000000
						}
					}
				}
				JOINT lclavicle
				{
					OFFSET 0.071702 0.114000 -0.018898
					CHANNELS 3 Zrotation Yrotation Xrotation
					JOINT lshoulder
					{
						OFFSET 0.122921 0.045205 -0.019046
						CHANNELS 3 Zrotation Yrotation Xrotation
						JOINT lelbow
						{
							OFFSET 0.255332 -0.015649 -0.022946
							CHANNELS 3 Zrotation Yrotation Xrotation
							JOINT lwrist
							{
								OFFSET 0.265709 0.012698 -0.007375
								CHANNELS 3 Zrotation Yrotation Xrotation
								End Site
								{
									OFFSET 0.000000 0.000000 0.000000
								}
							}
						}
					}
				}
				JOINT rclavicle
				{
					OFFSET -0.082954 0.112472 -0.023707
					CHANNELS 3 Zrotation Yrotation Xrotation
					JOINT rshoulder
					{
						OFFSET -0.113228 0.046853 -0.008472
						CHANNELS 3 Zrotation Yrotation Xrotation
						JOINT relbow
						{
							OFFSET -0.260127 -0.014369 -0.031269
							CHANNELS 3 Zrotation Yrotation Xrotation
							JOINT rwrist
							{
								OFFSET -0.269108 0.006794 -0.006027
								CHANNELS 3 Zrotation Yrotation Xrotation
								End Site
								{
									OFFSET 0.000000 0.000000 0.000000
								}
							}
						}
					}
				}
			}
		}
	}
}
MOTION
Frames: 11
Frame Time: 0.033333
-0.694913 0.922618 0.968887 89.663746 -0.512553 86.813693 8.068939 -0.225446 -3.975371 -9.898150 -10.535632 16.269131 3.093004 8.270891 -20.148044 0.000000 -0.000000 0.000000 -11.958394 -3.403337 -5.673014 5.046258 7.962058 18.933489 5.823636 -3.009443 -19.759674 0.000000 -0.000000 0.000000 -0.875004 1.575246 13.328231 1.738022 -1.812444 -2.321028 -0.312802 -1.352500 1.044651 2.651672 6.070710 -16.715557 -2.739046 -2.538598 15.456807 -34.296924 4.815565 2.121283 -43.474043 -5.051713 8.549178 4.405710 -29.473982 -19.739033 37.253752 -10.083847 -27.068710 38.845132 1.453124 1.475907 44.013958 3.752485 15.366370 -9.213807 20.477626 -14.287881 -21.930251 15.510981 0.709226 
-0.694879 0.922691 0.968304 89.815427 -0.475137 86.704589 8.116924 0.216938 -3.977095 -9.893590 -10.832226 16.421807 2.894754 7.964240 -20.251729 0.000000 -0.000000 0.000000 -11.700487 -3.596521 -6.401632 4.779632 7.727693 20.542814 5.611282 -2.719465 -20.130512 0.000000 -0.000000 0.000000 -0.953380 1.304160 13.499692 1.750702 -1.719124 -2.107689 -0.435307 -1.239011 0.966293 2.166589 6.389117 -16.412052 -2.910221 -2.332634 14.880144 -34.062435 4.558385 2.020441 -43.175058 -5.246250 8.997696 5.041559 -32.350588 -19.418888 37.175649 -9.665327 -27.257948 39.042247 1.570244 1.398654 44.016748 3.581354 15.198207 -8.957979 20.277365 -14.585162 -21.327275 14.703686 1.106893 
-0.694408 0.922298 0.968493 89.966783 -0.568243 86.537816 7.992849 0.035219 -3.720506 -9.844041 -11.046865 16.347326 2.864152 8.109858 -20.378048 0.000000 -0.000000 0.000000 -11.814301 -3.914921 -6.844832 4.942460 7.458111 21.877039 5.957583 -2.590402 -19.870620 0.000000 -0.000000 0.000000 -0.983618 1.164248 13.674979 1.674138 -1.696757 -1.985577 -0.574771 -1.315377 0.827672 1.835991 6.547408 -16.222529 -3.184718 -2.133376 15.153431 -34.015373 4.447268 2.012337 -42.799666 -5.641387 9.510912 5.828385 -34.837355 -19.228445 36.762058 -9.655758 -27.915522 39.229290 1.700554 1.515318 43.926542 3.394143 15.273654 -8.693694 20.011368 -15.392327 -20.583395 14.461720 0.120570 
-0.693706 0.919898 0.968715 90.130567 -0.733676 86.503280 7.941008 0.138975 -3.472851 -9.776201 -11.406176 15.974510 2.871524 8.110516 -20.209747 0.000000 -0.000000 0.000000 -11.835650 -4.045574 -7.534952 5.023058 6.831536 23.237385 5.962930 -2.697993 -19.876926 0.000000 -0.000000 0.000000 -1.048765 0.803371 13.842878 1.490699 -1.654724 -2.348043 -0.709268 -1.330607 0.953858 1.343333 6.911698 -15.841444 -3.408291 -1.583571 15.268203 -33.848281 4.369035 1.891330 -42.510029 -6.150798 10.097005 6.365682 -37.918353 -18.699230 36.763011 -9.220927 -28.580092 39.206370 1.451676 1.412893 43.980797 3.291491 15.307190 -8.519418 20.274248 -15.529363 -19.765732 13.647648 -0.328038 
-0.694204 0.917735 0.968804 90.298755 -0.768940 86.616428 8.017631 -0.043332 -3.786298 -9.714369 -11.230359 16.215511 2.805711 8.022356 -20.103662 0.000000 -0.000000 0.000000 -11.728872 -3.848198 -7.973052 4.995503 6.423642 23.913975 5.852688 -2.560883 -20.111789 0.000000 -0.000000 0.000000 -1.105765 0.692248 13.589885 1.537220 -1.670837 -2.140342 -0.693783 -1.521192 0.975294 1.085069 7.203880 -15.709157 -3.699067 -1.184652 15.411376 -33.891418 4.121962 1.932606 -42.493936 -6.613855 10.416236 7.070874 -39.354529 -18.905956 36.299400 -9.243778 -28.548209 39.042003 1.593537 1.440081 44.059428 3.355408 15.406202 -8.286449 20.526823 -16.090233 -19.145083 13.082686 -1.817185 
-0.692593 0.913823 0.969241 90.343142 -0.880907 86.129837 8.128003 0.450324 -2.858983 -9.542265 -11.752152 15.642929 2.304348 7.800649 -20.018252 0.000000 -0.000000 0.000000 -11.706596 -3.900471 -7.314050 4.976701 6.456767 23.918151 5.888724 -2.273419 -20.376954 0.000000 -0.000000 0.000000 -1.149401 0.524982 13.635332 1.434447 -1.671095 -1.475885 -0.804600 -1.587966 0.704131 0.859773 7.642026 -15.573055 -3.632240 -0.665467 15.794383 -33.692945 3.687392 1.772551 -42.602778 -6.850269 10.860374 7.935695 -41.437503 -18.736966 35.994318 -8.984250 -28.398908 38.885546 1.687886 1.158206 43.932847 3.189053 15.257243 -8.065643 21.186713 -15.697202 -16.841571 12.816294 -1.625202 
-0.691666 0.909505 0.969138 90.591300 -0.970039 86.240007 8.302743 0.271494 -2.815924 -9.464917 -11.766233 15.337820 2.307663 7.754623 -19.774288 0.000000 -0.000000 0.000000 -11.736664 -4.027753 -6.981460 5.110379 6.495135 23.469804 5.831075 -2.050119 -20.541523 0.000000 -0.000000 0.000000 -1.193183 0.462548 13.210016 1.438983 -1.933973 -1.456080 -0.773597 -1.691910 0.627387 0.644400 7.699352 -15.091906 -3.834139 -0.308259 16.121689 -33.647964 3.520860 2.094524 -42.885244 -6.867805 11.278248 9.153995 -43.639646 -18.171441 33.515213 -8.843842 -28.154315 38.744532 1.703997 1.533388 43.707059 3.072058 15.079936 -8.693046 22.108856 -14.666468 -13.120419 12.246318 -0.973631 
-0.691282 0.904691 0.968875 90.248598 -1.124496 86.284265 8.518494 0.324949 -2.621812 -9.451512 -11.552129 15.054946 2.101745 7.701648 -19.748089 0.000000 -0.000000 0.000000 -11.585665 -3.969783 -6.718426 5.075297 6.721558 22.910809 5.601156 -1.866382 -21.043155 0.000000 -0.000000 0.000000 -1.213330 0.482956 12.903891 1.348537 -1.868345 -1.351644 -0.883716 -1.659182 0.385177 0.417056 8.113614 -14.537065 -3.558132 -0.150615 16.549963 -33.547136 3.337582 2.088141 -43.024583 -6.718538 11.741800 9.335163 -45.294890 -16.572029 31.788553 -8.509361 -27.289687 38.514418 1.612142 1.463464 43.660351 3.179061 14.984474 -8.716043 22.649937 -13.052598 -9.507923 10.504812 -0.652645 
-0.690962 0.899879 0.968242 90.176063 -1.220452 86.487676 8.660812 0.384530 -2.907038 -9.352317 -11.379230 15.259973 2.288879 7.714682 -19.682211 0.000000 -0.000000 0.000000 -11.390449 -4.158914 -6.524218 5.125227 6.926057 22.271742 5.203580 -1.936028 -21.660560 0.000000 -0.000000 0.000000 -1.278438 0.472527 12.130830 1.381757 -1.968900 -0.837651 -0.876938 -1.698855 0.185112 0.565720 8.178535 -14.201070 -3.687290 0.273865 16.843284 -33.741979 3.214778 2.060196 -43.148265 -6.454534 12.189759 9.652674 -46.969598 -14.854238 29.452203 -8.508440 -25.659044 38.288360 2.150459 1.635232 43.385866 2.997174 14.985986 -9.067246 23.391197 -12.216806 -6.839256 10.314855 -0.249631 
-0.691055 0.894251 0.968533 89.541006 -1.371743 86.396781 8.836961 0.769431 -2.595676 -9.240874 -11.222166 15.183619 1.966564 7.682147 -19.643037 0.000000 -0.000000 0.000000 -11.257565 -3.958703 -6.663839 5.256900 7.134535 22.407113 5.332403 -1.529523 -21.456291 0.000000 -0.000000 0.000000 -1.253566 0.420797 11.979023 1.315256 -1.581129 -0.682113 -1.009456 -1.710468 0.013595 0.925811 8.444194 -14.412845 -4.047999 0.330176 17.342106 -34.119807 3.264199 1.952131 -42.922589 -6.102594 12.865471 9.236186 -49.138234 -11.085684 26.030109 -9.172214 -22.542120 38.304308 2.139306 1.500427 42.795598 3.594982 14.752141 -8.731804 23.605559 -11.067897 -3.157762 9.505679 0.133715 
-0.690407 0.890259 0.968696 89.307626 -1.242827 86.199080 9.139075 0.706283 -2.085521 -8.936286 -11.040131 14.805944 1.715186 7.590446 -19.547478 0.000000 -0.000000 0.000000 -10.930029 -3.714711 -6.462410 5.237947 6.903018 22.389537 5.028828 -1.292006 -21.484106 0.000000 -0.000000 0.000000 -1.090518 0.309624 11.730352 1.435766 -1.509111 -0.171517 -1.016937 -1.694818 -0.372442 1.304540 8.797741 -14.016125 -4.298233 0.266712 17.369418 -34.280351 3.248867 2.219411 -43.262784 -5.572639 13.347130 9.196958 -50.860076 -7.518912 21.999201 -10.448787 -20.086799 38.096869 2.472989 1.840077 42.616635 3.863053 14.374380 -9.136013 23.688693 -10.448444 -1.523776 9.301606 -0.138552 
